<?xml version="1.0" standalone="no"?>
<!DOCTYPE svg PUBLIC "-//W3C//DTD SVG 20010904//EN"
 "http://www.w3.org/TR/2001/REC-SVG-20010904/DTD/svg10.dtd">
<svg version="1.0" xmlns="http://www.w3.org/2000/svg"
 width="256.000000pt" height="256.000000pt" viewBox="0 0 256.000000 256.000000"
 preserveAspectRatio="xMidYMid meet">
<metadata>
Created by potrace 1.11, written by Peter Selinger 2001-2013
</metadata>
<g transform="translate(0.000000,256.000000) scale(0.100000,-0.100000)"
fill="#000000" stroke="none">
<path d="M160 2539 c-55 -25 -104 -71 -133 -124 l-22 -40 0 -1095 c0 -1049 1
-1096 19 -1130 26 -49 74 -98 121 -123 l40 -22 1077 -3 c1063 -2 1078 -2 1132
18 71 27 130 90 151 162 14 48 15 177 13 1124 l-3 1069 -22 40 c-25 47 -74 95
-123 121 -33 18 -83 19 -1120 21 -1063 2 -1086 1 -1130 -18z"/>
</g>
</svg>
